<svg width="282" height="24" viewBox="0 0 282 24" fill="none" xmlns="http://www.w3.org/2000/svg">
<path d="M10.6583 4.6C10.1463 4.6 9.63434 4.664 9.12234 4.792C8.61034 4.92 8.141 5.12267 7.71434 5.4C7.28767 5.656 6.925 5.98667 6.62634 6.392C6.349 6.776 6.17834 7.224 6.11434 7.736L4.96234 15.704C4.941 15.832 4.93034 15.96 4.93034 16.088C4.93034 16.4507 4.99434 16.7707 5.12234 17.048C5.31434 17.4107 5.59167 17.72 5.95434 17.976C6.317 18.232 6.733 18.424 7.20234 18.552C7.693 18.68 8.205 18.744 8.73834 18.744C9.27167 18.744 9.79434 18.68 10.3063 18.552C10.8397 18.424 11.3197 18.232 11.7463 17.976C12.1943 17.72 12.5677 17.4107 12.8663 17.048C13.165 16.664 13.3463 16.216 13.4103 15.704L13.6343 14.04H8.48234L9.02634 10.072H18.4663L17.6983 15.704C17.5063 16.984 17.101 18.104 16.4823 19.064C15.8637 20.0027 15.1063 20.792 14.2103 21.432C13.3357 22.072 12.3543 22.552 11.2663 22.872C10.1783 23.1707 9.07967 23.32 7.97034 23.32C6.88234 23.32 5.837 23.16 4.83434 22.84C3.83167 22.4987 2.957 22.0187 2.21034 21.4C1.485 20.76 0.941003 19.9707 0.578336 19.032C0.322336 18.3707 0.194336 17.6453 0.194336 16.856C0.194336 16.4933 0.226336 16.1093 0.290336 15.704L1.44234 7.48C1.613 6.24267 2.00767 5.16534 2.62634 4.248C3.26634 3.30934 4.045 2.53067 4.96234 1.912C5.87967 1.272 6.88234 0.80267 7.97034 0.504004C9.07967 0.184003 10.189 0.0240021 11.2983 0.0240021C12.0663 0.0240021 12.8237 0.109336 13.5703 0.280003C14.317 0.45067 15.0103 0.728003 15.6503 1.112C16.2903 1.47467 16.8663 1.96534 17.3783 2.584C17.8903 3.18134 18.2957 3.928 18.5943 4.824L14.4983 7.096C14.2637 6.24267 13.7837 5.61334 13.0583 5.208C12.333 4.80267 11.533 4.6 10.6583 4.6Z" fill="#FF005C"/>
<path d="M28.4221 23H23.7181L26.8861 0.344004H31.5901L28.4221 23Z" fill="#FF005C"/>
<path d="M48.5968 5.048L46.1008 23H41.3648L43.8608 5.048H37.3648L38.0368 0.312002H55.7648L55.0928 5.048H48.5968Z" fill="#FF005C"/>
<path d="M63.7971 23H59.0931L62.2611 0.344004H66.9651L65.7171 9.336H74.0691L75.3171 0.344004H80.0211L76.8531 23H72.1491L73.3971 14.04H65.0451L63.7971 23Z" fill="#FF005C"/>
<path d="M90.4111 16.056C90.4111 16.3973 90.4751 16.7067 90.6031 16.984C90.7951 17.3893 91.0618 17.72 91.4031 17.976C91.7658 18.232 92.1924 18.424 92.6831 18.552C93.1738 18.68 93.6858 18.744 94.2191 18.744C94.7311 18.744 95.2431 18.68 95.7551 18.552C96.2671 18.424 96.7258 18.232 97.1311 17.976C97.5578 17.6987 97.9204 17.368 98.2191 16.984C98.5178 16.5787 98.6991 16.1093 98.7631 15.576L100.907 0.344004H105.643L103.499 15.576C103.307 16.8773 102.88 18.0187 102.219 19C101.579 19.96 100.79 20.76 99.8511 21.4C98.9338 22.04 97.9204 22.52 96.8111 22.84C95.7018 23.16 94.5924 23.32 93.4831 23.32C92.3738 23.32 91.3071 23.16 90.2831 22.84C89.2804 22.4987 88.4058 22.008 87.6591 21.368C86.9338 20.728 86.3791 19.928 85.9951 18.968C85.7391 18.2853 85.6111 17.5387 85.6111 16.728C85.6111 16.3653 85.6431 15.9813 85.7071 15.576L87.8511 0.344004H92.5871L90.4431 15.576C90.4218 15.7467 90.4111 15.9067 90.4111 16.056Z" fill="#FF005C"/>
<path d="M128.36 15.096C128.36 15.224 128.36 15.352 128.36 15.48C128.317 16.0773 128.221 16.664 128.072 17.24C127.859 18.008 127.528 18.744 127.08 19.448C126.653 20.1307 126.088 20.7387 125.384 21.272C124.68 21.784 123.837 22.2 122.856 22.52C121.875 22.84 120.733 23 119.432 23H110.312L113.48 0.312002H122.44C123.421 0.312002 124.317 0.450669 125.128 0.728003C125.96 1.00534 126.653 1.432 127.208 2.008C127.784 2.56267 128.2 3.256 128.456 4.088C128.627 4.62134 128.712 5.19734 128.712 5.816C128.712 6.17867 128.68 6.56267 128.616 6.968C128.573 7.288 128.477 7.64 128.328 8.024C128.2 8.38667 128.019 8.74934 127.784 9.112C127.571 9.47467 127.304 9.816 126.984 10.136C126.664 10.456 126.301 10.7227 125.896 10.936C126.557 11.2773 127.069 11.6933 127.432 12.184C127.795 12.6747 128.051 13.1973 128.2 13.752C128.307 14.1787 128.36 14.6267 128.36 15.096ZM121.192 9.208C121.981 9.208 122.621 8.984 123.112 8.536C123.624 8.088 123.933 7.59734 124.04 7.064C124.061 6.936 124.072 6.81867 124.072 6.712C124.072 6.30667 123.944 5.93334 123.688 5.592C123.325 5.144 122.696 4.92 121.8 4.92H117.544L116.936 9.208H121.192ZM119.912 18.424C120.637 18.424 121.267 18.296 121.8 18.04C122.333 17.784 122.749 17.464 123.048 17.08C123.347 16.696 123.528 16.28 123.592 15.832C123.613 15.7253 123.624 15.6187 123.624 15.512C123.624 15.1707 123.549 14.8613 123.4 14.584C123.208 14.2 122.877 13.88 122.408 13.624C121.96 13.368 121.363 13.24 120.616 13.24H116.36L115.656 18.424H119.912Z" fill="#FF005C"/>
<path d="M152.53 18.776C153.49 18.776 154.268 18.584 154.866 18.2C155.463 17.816 155.847 17.2293 156.018 16.44C156.039 16.2907 156.05 16.1413 156.05 15.992C156.05 15.6933 155.996 15.448 155.89 15.256C155.698 14.936 155.41 14.68 155.026 14.488C154.663 14.2747 154.215 14.1147 153.682 14.008C153.17 13.9013 152.626 13.8053 152.05 13.72C151.175 13.592 150.333 13.3573 149.522 13.016C148.711 12.6533 148.007 12.184 147.41 11.608C146.813 11.0107 146.365 10.2853 146.066 9.432C145.874 8.92 145.778 8.36534 145.778 7.768C145.778 7.36267 145.821 6.94667 145.906 6.52C146.098 5.368 146.471 4.38667 147.026 3.576C147.602 2.76534 148.285 2.09334 149.074 1.56C149.885 1.02667 150.77 0.642669 151.73 0.408003C152.711 0.152002 153.714 0.0240021 154.738 0.0240021C156.21 0.0240021 157.565 0.322669 158.802 0.920002C160.039 1.51734 161.127 2.53067 162.066 3.96L158.194 6.424C157.703 5.76267 157.138 5.29334 156.498 5.016C155.858 4.71734 155.164 4.568 154.418 4.568C153.97 4.568 153.533 4.6 153.106 4.664C152.701 4.728 152.327 4.84534 151.986 5.016C151.645 5.16534 151.357 5.37867 151.122 5.656C150.887 5.93334 150.738 6.28534 150.674 6.712C150.653 6.86134 150.642 7 150.642 7.128C150.642 7.384 150.706 7.61867 150.834 7.832C151.004 8.10934 151.261 8.33334 151.602 8.504C151.943 8.67467 152.338 8.81334 152.786 8.92C153.255 9.02667 153.735 9.13334 154.226 9.24C155.186 9.432 156.103 9.67734 156.978 9.976C157.874 10.2533 158.631 10.68 159.25 11.256C159.89 11.832 160.349 12.5893 160.626 13.528C160.797 14.0187 160.882 14.6053 160.882 15.288C160.882 15.8213 160.828 16.408 160.722 17.048C160.53 18.2427 160.146 19.2453 159.57 20.056C159.015 20.8453 158.322 21.4853 157.49 21.976C156.658 22.4453 155.719 22.7867 154.674 23C153.65 23.2133 152.573 23.32 151.442 23.32C150.695 23.32 149.959 23.224 149.234 23.032C148.509 22.8613 147.815 22.5947 147.154 22.232C146.493 21.8693 145.885 21.4213 145.33 20.888C144.775 20.3547 144.306 19.7253 143.922 19L147.73 16.184C147.986 16.6107 148.295 16.984 148.658 17.304C149.021 17.624 149.415 17.8907 149.842 18.104C150.29 18.3173 150.738 18.488 151.186 18.616C151.655 18.7227 152.103 18.776 152.53 18.776Z" fill="#FF005C"/>
<path d="M173.405 9.368H183.165L182.525 13.944H172.765L172.157 18.424H182.781L182.141 23H166.781L169.949 0.312002H185.309L184.669 4.92H174.045L173.405 9.368Z" fill="#FF005C"/>
<path d="M207.932 23H203.004L201.724 17.816H194.972L192.38 23H187.356L198.46 0.344004H202.972L207.932 23ZM196.764 13.496H201.116L200.38 8.568L200.188 5.336H199.836L198.748 8.6L196.764 13.496Z" fill="#FF005C"/>
<path d="M225.845 0.344004C226.976 0.344004 228.011 0.48267 228.949 0.760002C229.888 1.016 230.677 1.44267 231.317 2.04C231.957 2.616 232.416 3.36267 232.693 4.28C232.885 4.87734 232.981 5.56 232.981 6.328C232.981 6.73334 232.96 7.14934 232.917 7.576C232.619 9.66667 231.947 11.2453 230.901 12.312C229.856 13.3787 228.491 14.072 226.805 14.392L232.373 23H226.581L221.301 14.712H219.637L218.485 23H213.749L216.917 0.344004H225.845ZM224.437 10.424C225.483 10.424 226.336 10.2107 226.997 9.784C227.659 9.336 228.064 8.61067 228.213 7.608C228.235 7.43734 228.245 7.27734 228.245 7.128C228.245 6.872 228.213 6.63734 228.149 6.424C228.021 6.08267 227.819 5.816 227.541 5.624C227.264 5.432 226.923 5.29334 226.517 5.208C226.112 5.12267 225.664 5.08 225.173 5.08H220.981L220.245 10.424H224.437Z" fill="#FF005C"/>
<path d="M246.095 23.32C245.007 23.32 243.951 23.16 242.927 22.84C241.925 22.52 241.05 22.0507 240.303 21.432C239.557 20.792 239.002 20.0027 238.639 19.064C238.383 18.4453 238.255 17.752 238.255 16.984C238.255 16.6 238.287 16.1947 238.351 15.768L239.567 7.544C239.759 6.30667 240.175 5.21867 240.815 4.28C241.455 3.34134 242.234 2.56267 243.151 1.944C244.069 1.304 245.071 0.824003 246.159 0.504004C247.269 0.184003 248.389 0.0240021 249.519 0.0240021C250.266 0.0240021 251.013 0.120002 251.759 0.312002C252.506 0.504002 253.199 0.802669 253.839 1.208C254.479 1.61334 255.045 2.12534 255.535 2.744C256.047 3.34134 256.442 4.056 256.719 4.888L252.623 7.064C252.303 6.232 251.77 5.624 251.023 5.24C250.277 4.83467 249.487 4.632 248.655 4.632C248.143 4.632 247.631 4.70667 247.119 4.856C246.629 4.984 246.181 5.176 245.775 5.432C245.37 5.688 245.018 6.008 244.719 6.392C244.442 6.75467 244.271 7.18134 244.207 7.672L243.023 15.768C243.002 15.9173 242.991 16.056 242.991 16.184C242.991 16.4827 243.045 16.7707 243.151 17.048C243.301 17.4107 243.535 17.72 243.855 17.976C244.175 18.232 244.559 18.424 245.007 18.552C245.455 18.68 245.925 18.744 246.415 18.744C247.269 18.744 248.133 18.552 249.007 18.168C249.882 17.7627 250.597 17.1333 251.151 16.28L254.895 18.552C253.679 20.152 252.282 21.3467 250.703 22.136C249.146 22.9253 247.61 23.32 246.095 23.32Z" fill="#FF005C"/>
<path d="M265.36 23H260.656L263.824 0.344004H268.528L267.28 9.336H275.632L276.88 0.344004H281.584L278.416 23H273.712L274.96 14.04H266.608L265.36 23Z" fill="#FF005C"/>
</svg>
