<svg width="37" height="24" viewBox="0 0 37 24" fill="none" xmlns="http://www.w3.org/2000/svg">
<path d="M10.6578 4.576C10.1458 4.576 9.63385 4.64 9.12185 4.768C8.60985 4.896 8.14051 5.09867 7.71385 5.376C7.28718 5.632 6.92451 5.96267 6.62585 6.368C6.34851 6.752 6.17785 7.2 6.11385 7.712L4.96185 15.68C4.94051 15.808 4.92985 15.936 4.92985 16.064C4.92985 16.4267 4.99385 16.7467 5.12185 17.024C5.31385 17.3867 5.59118 17.696 5.95385 17.952C6.31651 18.208 6.73251 18.4 7.20185 18.528C7.69251 18.656 8.20451 18.72 8.73785 18.72C9.27118 18.72 9.79385 18.656 10.3058 18.528C10.8392 18.4 11.3192 18.208 11.7458 17.952C12.1938 17.696 12.5672 17.3867 12.8658 17.024C13.1645 16.64 13.3458 16.192 13.4098 15.68L13.6338 14.016H8.48185L9.02585 10.048H18.4658L17.6978 15.68C17.5058 16.96 17.1005 18.08 16.4818 19.04C15.8632 19.9787 15.1058 20.768 14.2098 21.408C13.3352 22.048 12.3538 22.528 11.2658 22.848C10.1778 23.1467 9.07918 23.296 7.96985 23.296C6.88185 23.296 5.83651 23.136 4.83385 22.816C3.83118 22.4747 2.95651 21.9947 2.20985 21.376C1.48451 20.736 0.940514 19.9467 0.577847 19.008C0.321847 18.3467 0.193848 17.6213 0.193848 16.832C0.193848 16.4693 0.225847 16.0853 0.289847 15.68L1.44185 7.456C1.61251 6.21867 2.00718 5.14133 2.62585 4.224C3.26585 3.28533 4.04451 2.50667 4.96185 1.888C5.87918 1.248 6.88185 0.778668 7.96985 0.480001C9.07918 0.16 10.1885 0 11.2978 0C12.0658 0 12.8232 0.0853335 13.5698 0.256001C14.3165 0.426668 15.0098 0.704001 15.6498 1.088C16.2898 1.45067 16.8658 1.94133 17.3778 2.56C17.8898 3.15733 18.2952 3.904 18.5938 4.8L14.4978 7.072C14.2632 6.21867 13.7832 5.58933 13.0578 5.184C12.3325 4.77867 11.5325 4.576 10.6578 4.576Z" fill="#FF005C"/>
<path d="M27.2019 18.752C28.1619 18.752 28.9405 18.56 29.5378 18.176C30.1352 17.792 30.5192 17.2053 30.6899 16.416C30.7112 16.2667 30.7219 16.1173 30.7219 15.968C30.7219 15.6693 30.6685 15.424 30.5619 15.232C30.3699 14.912 30.0819 14.656 29.6979 14.464C29.3352 14.2507 28.8872 14.0907 28.3539 13.984C27.8419 13.8773 27.2979 13.7813 26.7219 13.696C25.8472 13.568 25.0045 13.3333 24.1939 12.992C23.3832 12.6293 22.6792 12.16 22.0819 11.584C21.4845 10.9867 21.0365 10.2613 20.7379 9.408C20.5459 8.896 20.4499 8.34133 20.4499 7.744C20.4499 7.33867 20.4925 6.92267 20.5779 6.496C20.7699 5.344 21.1432 4.36267 21.6979 3.552C22.2739 2.74133 22.9565 2.06933 23.7459 1.536C24.5565 1.00267 25.4419 0.618665 26.4019 0.383999C27.3832 0.127998 28.3859 0 29.4099 0C30.8819 0 32.2365 0.298667 33.4739 0.896C34.7112 1.49333 35.7992 2.50667 36.7379 3.936L32.8659 6.4C32.3752 5.73867 31.8099 5.26933 31.1699 4.992C30.5299 4.69333 29.8365 4.544 29.0899 4.544C28.6419 4.544 28.2045 4.576 27.7779 4.64C27.3725 4.704 26.9992 4.82133 26.6579 4.992C26.3165 5.14133 26.0285 5.35467 25.7939 5.632C25.5592 5.90933 25.4099 6.26133 25.3459 6.688C25.3245 6.83733 25.3139 6.976 25.3139 7.104C25.3139 7.36 25.3779 7.59467 25.5059 7.808C25.6765 8.08534 25.9325 8.30933 26.2739 8.48C26.6152 8.65067 27.0099 8.78933 27.4579 8.896C27.9272 9.00267 28.4072 9.10933 28.8979 9.216C29.8578 9.408 30.7752 9.65333 31.6499 9.952C32.5459 10.2293 33.3032 10.656 33.9219 11.232C34.5619 11.808 35.0205 12.5653 35.2979 13.504C35.4685 13.9947 35.5539 14.5813 35.5539 15.264C35.5539 15.7973 35.5005 16.384 35.3939 17.024C35.2019 18.2187 34.8179 19.2213 34.2419 20.032C33.6872 20.8213 32.9939 21.4613 32.1619 21.952C31.3299 22.4213 30.3912 22.7627 29.3459 22.976C28.3219 23.1893 27.2445 23.296 26.1139 23.296C25.3672 23.296 24.6312 23.2 23.9059 23.008C23.1805 22.8373 22.4872 22.5707 21.8259 22.208C21.1645 21.8453 20.5565 21.3973 20.0019 20.864C19.4472 20.3307 18.9778 19.7013 18.5938 18.976L22.4019 16.16C22.6579 16.5867 22.9672 16.96 23.3299 17.28C23.6925 17.6 24.0872 17.8667 24.5139 18.08C24.9619 18.2933 25.4099 18.464 25.8579 18.592C26.3272 18.6987 26.7752 18.752 27.2019 18.752Z" fill="#FF005C"/>
</svg>
