<svg width="64" height="64" viewBox="0 0 64 64" xmlns="http://www.w3.org/2000/svg">
<path d="M56.5394 52.5394C61.1962 46.9815 64 39.8182 64 32C64 14.3269 49.6731 0 32 0C14.3269 0 0 14.3269 0 32C0 49.6731 14.3269 64 32 64C38.9699 64 45.4194 61.7717 50.6748 57.9885L41.2734 48.5871C38.5306 50.1239 35.3676 51 32 51C21.5066 51 13 42.4934 13 32C13 21.5066 21.5066 13 32 13C42.4934 13 51 21.5066 51 32C51 36.2264 49.6201 40.1304 47.2862 43.2862L56.5394 52.5394Z"/>
<path d="M32 43C38.0751 43 43 38.0751 43 32C43 25.9249 38.0751 21 32 21C25.9249 21 21 25.9249 21 32C21 38.0751 25.9249 43 32 43Z"/>
</svg>
